<svg width="256" height="256" viewBox="0 0 256 256" fill="none" xmlns="http://www.w3.org/2000/svg">
  <!-- Background circle for modern look -->
  <circle cx="128" cy="128" r="120" fill="#0078D4" stroke="#005A9E" stroke-width="16"/>
  
  <!-- Folder shape -->
  <path d="M64 80 L192 80 L192 208 L64 208 Z" fill="#FFFFFF"/>
  <path d="M64 80 L96 80 L96 64 L128 64 L128 80 L192 80" fill="#FFFFFF"/>
  
  <!-- Folder tab -->
  <rect x="96" y="64" width="32" height="16" fill="#FFFFFF"/>
  
  <!-- Tag icon inside folder -->
  <g transform="translate(112, 120)">
    <path d="M0 0 L20 0 L20 12 L12 20 L0 20 Z" fill="#FF6B35"/>
    <circle cx="10" cy="10" r="3" fill="#FFFFFF"/>
  </g>
  
  <!-- File icons -->
  <rect x="80" y="140" width="16" height="20" fill="#4CAF50" rx="2"/>
  <rect x="104" y="140" width="16" height="20" fill="#2196F3" rx="2"/>
  <rect x="128" y="140" width="16" height="20" fill="#FF9800" rx="2"/>
  
  <!-- Lines for files -->
  <line x1="84" y1="148" x2="88" y2="148" stroke="#FFFFFF" stroke-width="1"/>
  <line x1="84" y1="152" x2="88" y2="152" stroke="#FFFFFF" stroke-width="1"/>
  <line x1="84" y1="156" x2="88" y2="156" stroke="#FFFFFF" stroke-width="1"/>
  
  <line x1="108" y1="148" x2="112" y2="148" stroke="#FFFFFF" stroke-width="1"/>
  <line x1="108" y1="152" x2="112" y2="152" stroke="#FFFFFF" stroke-width="1"/>
  
  <line x1="132" y1="148" x2="136" y2="148" stroke="#FFFFFF" stroke-width="1"/>
  <line x1="132" y1="152" x2="136" y2="152" stroke="#FFFFFF" stroke-width="1"/>
  <line x1="132" y1="156" x2="136" y2="156" stroke="#FFFFFF" stroke-width="1"/>
</svg>